<svg width="24" height="24" viewBox="0 0 24 24" fill="none" xmlns="http://www.w3.org/2000/svg">
<path d="M11.9876 10.4326C10.8899 10.4326 10 11.2455 10 12.2482C10 13.251 10.8899 14.0638 11.9876 14.0638C13.0853 14.0638 13.9752 14.8767 13.9752 15.8794C13.9752 16.8822 13.0853 17.695 11.9876 17.695M11.9876 10.4326C12.8167 10.4326 13.5273 10.8964 13.8253 11.5555M11.9876 10.4326V9M11.9876 17.695C11.1468 17.695 10.428 17.2182 10.1375 16.5443M11.9876 17.695V19M9.5 6L2.9553 14.6329C0.566254 17.7069 2.93248 22 7.01576 22H16.9842C21.0675 22 23.4337 17.7069 21.0447 14.6329L14.5 6L17.5014 2H6.49864L9.5 6ZM9.5 6H17.5" stroke="#181D27" stroke-width="2" stroke-linecap="round" stroke-linejoin="round"/>
</svg>
