<svg width="24" height="25" viewBox="0 0 24 25" fill="none" xmlns="http://www.w3.org/2000/svg">
<path d="M8.99988 0.949829C8.44759 0.949829 7.99988 1.39754 7.99988 1.94983C7.99988 2.50211 8.44759 2.94983 8.99988 2.94983V0.949829ZM16.0389 2.94983C16.5912 2.94983 17.0389 2.50211 17.0389 1.94983C17.0389 1.39754 16.5912 0.949829 16.0389 0.949829V2.94983ZM13 9C13 8.44772 12.5523 8 12 8C11.4477 8 11 8.44772 11 9H13ZM12 14H11C11 14.2652 11.1054 14.5196 11.2929 14.7071L12 14ZM15.2795 18.6937C15.67 19.0842 16.3032 19.0842 16.6937 18.6937C17.0842 18.3032 17.0842 17.67 16.6937 17.2795L15.2795 18.6937ZM5 5C5 4.44772 4.55228 4 4 4C3.44772 4 3 4.44772 3 5H5ZM3 5.1C3 5.65228 3.44772 6.1 4 6.1C4.55228 6.1 5 5.65228 5 5.1H3ZM21 5C21 4.44772 20.5523 4 20 4C19.4477 4 19 4.44772 19 5H21ZM19 5.1C19 5.65228 19.4477 6.1 20 6.1C20.5523 6.1 21 5.65228 21 5.1H19ZM11.9397 24C17.4625 24 21.9397 19.5228 21.9397 14H19.9397C19.9397 18.4183 16.358 22 11.9397 22V24ZM21.9397 14C21.9397 8.47715 17.4625 4 11.9397 4V6C16.358 6 19.9397 9.58172 19.9397 14H21.9397ZM11.9397 4C6.41685 4 1.9397 8.47715 1.9397 14H3.9397C3.9397 9.58172 7.52142 6 11.9397 6V4ZM1.9397 14C1.9397 19.5228 6.41685 24 11.9397 24V22C7.52142 22 3.9397 18.4183 3.9397 14H1.9397ZM8.99988 2.94983H16.0389V0.949829H8.99988V2.94983ZM11 9V14H13V9H11ZM11.2929 14.7071L15.2795 18.6937L16.6937 17.2795L12.7071 13.2929L11.2929 14.7071ZM3 5V5.1H5V5H3ZM19 5V5.1H21V5H19Z" fill="#181D27"/>
</svg>
