<svg width="24" height="24" viewBox="0 0 24 24" fill="none" xmlns="http://www.w3.org/2000/svg">
<path fill-rule="evenodd" clip-rule="evenodd" d="M4 6.5C4 4.567 5.567 3 7.5 3H16.5C18.433 3 20 4.567 20 6.5V6.5C20 8.433 18.433 10 16.5 10H7.5C5.567 10 4 8.433 4 6.5V6.5Z" stroke="#181D27" stroke-width="2" stroke-linecap="round" stroke-linejoin="round"/>
<circle cx="16.5" cy="6.5" r="1.5" fill="#181D27"/>
<path fill-rule="evenodd" clip-rule="evenodd" d="M4 17.5C4 15.567 5.567 14 7.5 14H16.5C18.433 14 20 15.567 20 17.5V17.5C20 19.433 18.433 21 16.5 21H7.5C5.567 21 4 19.433 4 17.5V17.5Z" stroke="#181D27" stroke-width="2" stroke-linecap="round" stroke-linejoin="round"/>
<circle cx="16.5" cy="17.5" r="1.5" fill="#181D27"/>
</svg>
